<?xml version="1.0" encoding="utf-8"?>
<!-- Generator: Adobe Illustrator 13.0.0, SVG Export Plug-In . SVG Version: 6.00 Build 14948)  -->
<!DOCTYPE svg PUBLIC "-//W3C//DTD SVG 1.1//EN" "http://www.w3.org/Graphics/SVG/1.1/DTD/svg11.dtd">
<svg version="1.1"
	 id="svg2" xmlns:dc="http://purl.org/dc/elements/1.1/" xmlns:sodipodi="http://sodipodi.sourceforge.net/DTD/sodipodi-0.dtd" xmlns:svg="http://www.w3.org/2000/svg" xmlns:inkscape="http://www.inkscape.org/namespaces/inkscape" xmlns:rdf="http://www.w3.org/1999/02/22-rdf-syntax-ns#" xmlns:cc="http://creativecommons.org/ns#" sodipodi:docname="system.svg" inkscape:version="0.91 r13725"
	 xmlns="http://www.w3.org/2000/svg" xmlns:xlink="http://www.w3.org/1999/xlink" x="0px" y="0px" width="453.541px"
	 height="78.859px" viewBox="0 0 453.541 78.859" enable-background="new 0 0 453.541 78.859" xml:space="preserve">
<sodipodi:namedview  id="base" fit-margin-left="0" showgrid="false" inkscape:cx="301.88092" borderopacity="1.0" bordercolor="#666666" inkscape:cy="82.538645" pagecolor="#ffffff" fit-margin-top="0" inkscape:zoom="0.98994949" showguides="false" fit-margin-right="0" inkscape:window-x="-9" inkscape:window-y="-9" inkscape:window-height="1001" fit-margin-bottom="0" inkscape:pageshadow="2" inkscape:current-layer="layer1" inkscape:pageopacity="0.0" inkscape:window-width="1920" inkscape:document-units="px" inkscape:window-maximized="1">
	</sodipodi:namedview>
<g id="layer1" transform="translate(-81.805296,-534.77198)" inkscape:label="Layer 1" inkscape:groupmode="layer">
	<g id="g3398" transform="translate(81.804336,534.77134)">
		<polygon id="_43443024" fill="#0055FF" points="403.47,77.633 408.69,39.178 390.893,0.734 410.115,0.734 419.61,22.572 
			433.85,0.734 453.542,0.734 425.776,43.93 421.269,77.633 		"/>
		<polygon id="_43441624" fill="#0055FF" points="230.695,17.821 257.745,17.821 260.357,0.734 215.503,0.734 204.823,77.633 
			249.438,77.633 251.812,60.537 224.761,60.537 226.422,47.253 249.914,47.253 252.291,30.165 229.033,30.165 		"/>
		<path id="_43775888" inkscape:connector-curvature="0" fill="#0055FF" d="M89.717,39.652l5.933-15.899l1.9,15.899H89.717
			L89.717,39.652z M83.31,54.842h16.138l2.851,22.783h29.19l13.528-41.77l6.647,41.77h15.426l17.087-44.143l2.849,44.143h17.087
			l-4.748-76.895h-20.411l-15.9,40.582l-6.172-40.582h-18.274l-20.884,63.129l-7.833-63.129H87.108L61.713,64.57l3.323-24.919
			H34.184l-2.138,15.19h13.529l-0.95,5.221c-2.374,1.423-7.831,1.66-9.967,1.66c-2.136,0-18.036-1.423-17.325-18.511
			c0.711-17.088,23.495-32.989,50.55-24.208l2.613-16.376C52.458-3.541,5.083-0.089,0.244,42.262
			c-2.847,24.919,19.937,36.786,35.125,36.551c8.781,0.476,18.75-2.849,22.31-4.748l-1.186,3.561h18.038L83.31,54.842L83.31,54.842z
			"/>
		<path id="_44102912" inkscape:connector-curvature="0" fill="#0055FF" d="M371.666,0.023
			c-12.343-0.475-30.143,6.645-36.075,35.363c-5.933,28.715,9.967,40.345,24.682,42.243c14.717,1.898,35.363-7.357,39.16-34.887
			C403.231,15.211,389.7,0.735,371.666,0.023z M369.767,16.399c4.983,0,15.662,3.323,13.051,23.257
			c-2.61,19.937-14.951,22.31-19.46,21.833c-4.512-0.475-13.766-3.557-11.155-21.833C354.813,21.382,364.542,16.161,369.767,16.399
			L369.767,16.399z"/>
		<path id="_44104296" inkscape:connector-curvature="0" fill="#0055FF" d="M296.666,30.165h9.969c7.358,0,8.782-4.747,9.018-6.644
			c0.237-1.9-1.896-5.698-5.693-5.698h-11.63L296.666,30.165z M292.396,60.541h13.529c7.354,0,9.017-5.693,9.251-7.594
			c0.239-1.898-1.896-5.693-5.693-5.693h-15.188L292.396,60.541L292.396,60.541L292.396,60.541z M272.461,77.631l10.68-76.895
			h32.751c7.834,0,19.225,9.02,17.802,21.123c-1.424,12.104-5.222,12.816-7.833,14.714c4.036,3.558,8.07,9.254,6.409,19.935
			c-1.662,10.682-10.443,21.121-25.87,21.121L272.461,77.631L272.461,77.631L272.461,77.631z"/>
		<path id="_44106160" inkscape:connector-curvature="0" fill="#0055FF" d="M430.896,65.998c-2.928,0-5.292,2.361-5.292,5.275
			c0,2.943,2.362,5.307,5.292,5.307c2.913,0,5.273-2.363,5.273-5.307C436.167,68.359,433.805,65.998,430.896,65.998v-0.725
			c3.318,0,5.998,2.691,5.998,6c0,3.338-2.68,6.029-5.998,6.029c-3.339,0-6.031-2.691-6.031-6.029c0-3.309,2.692-6,6.031-6V65.998
			L430.896,65.998z"/>
		<path id="_42975192" inkscape:connector-curvature="0" fill="#0055FF" d="M429.472,68.512h1.921c0.836,0,1.746,0.124,1.746,1.165
			c0,1.368-1.463,1.213-2.408,1.213l-1.259-0.001v0.646h1.514l1.921,3.103h0.975l-2.031-3.103c1.197-0.03,2.125-0.519,2.125-1.842
			c0-0.568-0.25-1.166-0.754-1.45c-0.504-0.298-1.072-0.329-1.64-0.329h-2.925v6.722h0.816L429.472,68.512L429.472,68.512
			L429.472,68.512z"/>
	</g>
</g>
</svg>
