<?xml version="1.0" encoding="UTF-8" standalone="no"?>
<!-- Created with Inkscape (http://www.inkscape.org/) -->

<svg
   xmlns:dc="http://purl.org/dc/elements/1.1/"
   xmlns:cc="http://creativecommons.org/ns#"
   xmlns:rdf="http://www.w3.org/1999/02/22-rdf-syntax-ns#"
   xmlns:svg="http://www.w3.org/2000/svg"
   xmlns="http://www.w3.org/2000/svg"
   xmlns:sodipodi="http://sodipodi.sourceforge.net/DTD/sodipodi-0.dtd"
   xmlns:inkscape="http://www.inkscape.org/namespaces/inkscape"
   width="159.99855mm"
   height="34.361546mm"
   viewBox="0 0 566.924 121.75351"
   id="svg2"
   version="1.1"
   inkscape:version="0.91 r13725"
   sodipodi:docname="system.svg">
  <defs
     id="defs4" />
  <sodipodi:namedview
     id="base"
     pagecolor="#ffffff"
     bordercolor="#666666"
     borderopacity="1.0"
     inkscape:pageopacity="0.0"
     inkscape:pageshadow="2"
     inkscape:zoom="0.98994949"
     inkscape:cx="304.29107"
     inkscape:cy="93.861401"
     inkscape:document-units="px"
     inkscape:current-layer="layer1"
     showgrid="false"
     showguides="false"
     fit-margin-top="0"
     fit-margin-left="0"
     fit-margin-right="0"
     fit-margin-bottom="0"
     inkscape:window-width="1920"
     inkscape:window-height="1001"
     inkscape:window-x="-9"
     inkscape:window-y="-9"
     inkscape:window-maximized="1" />
  <metadata
     id="metadata7">
    <rdf:RDF>
      <cc:Work
         rdf:about="">
        <dc:format>image/svg+xml</dc:format>
        <dc:type
           rdf:resource="http://purl.org/dc/dcmitype/StillImage" />
        <dc:title></dc:title>
      </cc:Work>
    </rdf:RDF>
  </metadata>
  <g
     inkscape:label="Layer 1"
     inkscape:groupmode="layer"
     id="layer1"
     transform="translate(-79.395146,-522.91402)">
    <g
       id="g3339"
       transform="translate(79.395146,522.91453)">
      <g
         id="_x23_ffffffff">
        <path
           id="path3342"
           d="m 207.014,5.277 c 4.724,-6.043 14.501,-7.076 20.297,-2.006 2.37,1.996 4.031,4.75 4.88,7.715 10.73,36.92 21.508,73.822 32.223,110.746 -6.332,0.006 -12.667,-0.012 -18.999,0.006 -2.987,-10.18 -5.903,-20.377 -8.852,-30.565 -12.246,-0.024 -24.485,-0.006 -36.73,-0.012 -2.998,10.184 -5.958,20.379 -8.901,30.582 -6.298,-0.021 -12.596,-0.005 -18.895,-0.011 10.194,-35.221 20.4,-70.438 30.643,-105.647 1.218,-3.681 1.678,-7.798 4.334,-10.808 m 11.179,22.625 c -4.49,15.295 -8.889,30.619 -13.354,45.922 8.9,0.043 17.796,0.016 26.692,0.016 -4.453,-15.313 -8.884,-30.625 -13.338,-45.938 z"
           inkscape:connector-curvature="0"
           style="fill:#c60000" />
        <path
           id="path3344"
           d="m 340.411,6.072 c 3.301,-4.787 9.681,-7.109 15.296,-5.631 5.142,1.184 9.075,5.615 10.434,10.604 10.72,36.893 21.477,73.772 32.194,110.666 -6.342,0.049 -12.679,0 -19.021,0.024 -2.948,-10.188 -5.864,-20.387 -8.834,-30.575 -12.226,0.006 -24.447,-0.021 -36.672,0.01 -2.922,10.195 -5.935,20.367 -8.855,30.563 -6.293,0.006 -12.581,-0.006 -18.874,0.006 10.188,-35.414 20.497,-70.797 30.768,-106.187 1.076,-3.195 1.492,-6.718 3.564,-9.48 m -1.543,67.768 c 8.863,0.013 17.722,0.007 26.584,0.007 -4.409,-15.347 -8.89,-30.671 -13.284,-46.015 -4.426,15.338 -8.894,30.662 -13.3,46.008 z"
           inkscape:connector-curvature="0"
           style="fill:#c60000" />
        <path
           id="path3346"
           d="m 250.237,0.256 c 22.91,0 45.814,0 68.719,0 0,6.182 0,12.355 0,18.533 -8.437,0.006 -16.865,-0.01 -25.296,0.006 0,34.313 0.006,68.627 -0.005,102.938 -6.039,0 -12.083,0 -18.122,0 0,-34.312 -0.005,-68.625 0.005,-102.938 -8.436,-0.016 -16.866,0 -25.301,-0.006 0,-6.178 -0.005,-12.351 0,-18.533 z"
           inkscape:connector-curvature="0"
           style="fill:#c60000" />
        <path
           id="path3348"
           d="m 418.475,1.01 c 1.74,-0.602 3.599,-0.807 5.437,-0.764 7.223,0.025 14.446,0.006 21.667,0.01 12.164,0.225 23.773,7.771 29.037,18.719 3.646,7.109 4.021,15.377 3.102,23.176 -0.634,8.164 -4.058,16.328 -10.334,21.741 -3.313,2.952 -7.443,4.743 -10.992,7.375 -1.947,1.481 -2.047,4.364 -1.039,6.428 9.586,14.799 19.552,29.367 29.34,44.039 -7.158,0.012 -14.316,-0.017 -21.476,0.012 -9.37,-14.074 -18.643,-28.219 -27.976,-42.313 -2.743,-4.013 -3.489,-9.324 -1.846,-13.902 1.281,-3.512 4.351,-6.08 7.769,-7.406 6.524,-2.49 12.958,-6.4 16.572,-12.559 2.749,-4.627 2.605,-10.336 1.37,-15.4 -1.45,-6.574 -7.855,-11.746 -14.625,-11.52 -4.682,0.031 -9.359,-0.021 -14.033,0.021 -2.116,-0.049 -4.107,1.791 -4.08,3.934 -0.022,33.047 0.011,66.096 -0.01,99.141 -6.088,-0.012 -12.168,0 -18.256,-0.006 C 408.09,86.16 408.114,50.582 408.09,15.006 408.128,8.77 412.563,2.902 418.475,1.01 Z"
           inkscape:connector-curvature="0"
           style="fill:#c60000" />
        <path
           id="path3350"
           d="m 494.262,0.256 c 6.402,0 12.803,0 19.21,0 -0.006,40.496 0.013,80.986 -0.012,121.481 -6.396,-0.018 -12.796,0 -19.198,-0.006 0,-40.496 0,-80.985 0,-121.475 z"
           inkscape:connector-curvature="0"
           style="fill:#c60000" />
      </g>
      <g
         id="g3352">
        <path
           id="path3354"
           d="m 54.173,0.008 c 3.076,-0.01 6.153,0 9.229,-0.008 0.013,7.234 0,14.469 0.005,21.701 0.032,6.039 -0.139,12.076 -0.389,18.107 -0.412,8.711 -0.957,17.439 -2.4,26.05 -0.991,5.937 -3.044,11.662 -5.592,17.099 -4.156,8.76 -10.686,16.172 -18.027,22.405 -6.567,5.779 -14.405,9.986 -22.649,12.835 -4.664,1.604 -9.463,2.844 -14.35,3.532 0.005,-6.065 0.005,-12.137 0,-18.203 5.883,-0.883 11.538,-2.971 16.791,-5.729 6.233,-3.295 11.844,-7.729 16.566,-12.953 4.877,-5.395 8.764,-11.641 11.714,-18.272 3.474,-7.625 5.333,-15.861 6.597,-24.109 1.584,-10.482 2.244,-21.088 2.489,-31.684 0.035,-3.591 0.005,-7.183 0.016,-10.771 z"
           inkscape:connector-curvature="0"
           style="fill:#c60000" />
        <path
           id="path3356"
           d="m 67.116,0.02 c 5.662,-0.037 11.328,-0.006 16.992,-0.016 0.002,40.574 0.002,81.149 0,121.728 -5.65,0.012 -11.303,-0.027 -16.953,0.021 C 67.083,108.815 67.145,95.874 67.125,82.938 67.118,55.295 67.136,27.658 67.116,0.02 Z"
           inkscape:connector-curvature="0"
           style="fill:#c60000" />
        <path
           id="path3358"
           d="m 87.888,0.004 c 3.06,-0.002 6.118,-0.008 9.176,0.002 -0.099,12.371 0.322,24.766 1.797,37.057 1.207,9.547 2.909,19.164 6.711,28.059 3.604,8.605 8.801,16.604 15.572,23.051 6.466,6.166 14.302,10.906 22.815,13.635 2.375,0.76 4.805,1.355 7.274,1.715 -0.003,6.064 -0.006,12.129 0,18.191 -4.852,-0.658 -9.61,-1.908 -14.24,-3.482 -5.514,-1.918 -10.847,-4.401 -15.745,-7.588 -3.576,-2.301 -6.828,-5.053 -9.952,-7.924 -5.149,-4.748 -9.758,-10.146 -13.219,-16.256 -2.708,-4.758 -4.683,-9.9 -6.23,-15.145 C 90.429,66.048 89.824,60.602 89.274,55.184 88.21,43.475 87.812,31.707 87.888,19.954 c 0,-6.649 -0.002,-13.302 0,-19.95 z"
           inkscape:connector-curvature="0"
           style="fill:#c60000" />
        <path
           id="path3360"
           d="m 54.173,0.008 c -0.01,3.588 0.02,7.18 -0.016,10.77 -0.245,10.596 -0.904,21.201 -2.489,31.684 -1.264,8.248 -3.124,16.484 -6.597,24.109 -2.95,6.635 -6.837,12.879 -11.714,18.272 -4.722,5.228 -10.333,9.658 -16.566,12.953 -5.253,2.764 -10.908,4.85 -16.791,5.73 0.005,6.066 0.005,12.138 0,18.203 4.887,-0.688 9.686,-1.928 14.35,-3.532 8.244,-2.849 16.082,-7.056 22.649,-12.834 7.341,-6.234 13.871,-13.646 18.027,-22.406 2.547,-5.437 4.601,-11.162 5.592,-17.099 1.443,-8.61 1.989,-17.339 2.4,-26.05 0.25,-6.031 0.421,-12.068 0.389,-18.107 C 63.402,14.469 63.415,7.234 63.402,0 60.325,0.008 57.249,-0.002 54.173,0.008"
           inkscape:connector-curvature="0"
           style="fill:#c60000" />
        <path
           id="path3362"
           d="m 67.116,0.02 c 0.02,27.641 0.002,55.275 0.01,82.917 0.02,12.938 -0.042,25.879 0.03,38.815 5.65,-0.051 11.302,-0.012 16.953,-0.021 0.002,-40.574 0.002,-81.15 0,-121.728 C 78.444,0.014 72.778,-0.018 67.116,0.02"
           inkscape:connector-curvature="0"
           style="fill:#c60000" />
        <path
           id="path3364"
           d="m 87.888,0.004 c -0.002,6.648 0,13.301 0,19.949 -0.076,11.754 0.322,23.521 1.386,35.23 0.55,5.418 1.155,10.863 2.573,16.134 1.547,5.244 3.522,10.388 6.23,15.146 3.46,6.109 8.07,11.509 13.219,16.256 3.124,2.871 6.376,5.623 9.952,7.923 4.898,3.188 10.231,5.672 15.745,7.59 4.63,1.574 9.388,2.824 14.24,3.481 -0.006,-6.063 -0.003,-12.127 0,-18.19 -2.47,-0.359 -4.899,-0.955 -7.274,-1.715 -8.513,-2.729 -16.35,-7.47 -22.815,-13.636 C 114.373,81.726 109.177,73.728 105.572,65.121 101.77,56.226 100.068,46.609 98.861,37.06 97.386,24.771 96.965,12.376 97.064,0.005 94.007,-0.004 90.948,0.002 87.888,0.004"
           inkscape:connector-curvature="0"
           style="fill:#c60000" />
      </g>
      <path
         id="path3366"
         d="m 562.213,99.303 3.963,0 0,22.449 -18.669,-15.213 c -1.751,-1.431 -3.919,-3.09 -6.225,-3.09 -3.642,0 -6.638,3.229 -6.638,6.821 0,3.552 2.856,6.455 6.358,6.687 l 0,4.334 c -6.177,-0.69 -10.324,-4.703 -10.324,-11.021 0,-5.897 4.38,-10.971 10.418,-10.971 2.582,0 5.164,0.969 7.146,2.58 l 13.969,11.434 0.002,-14.01 0,0 z"
         inkscape:connector-curvature="0"
         style="fill:#c60000" />
      <path
         id="path3368"
         d="m 532.8,79.433 12.538,9.266 0.095,-0.092 c -0.509,-1.017 -0.829,-2.166 -0.829,-3.412 0,-5.715 5.302,-10.049 10.879,-10.049 6.36,0 11.434,5.164 11.434,11.479 0,5.992 -4.979,11.572 -11.108,11.572 -3.506,0 -6.454,-1.752 -9.176,-3.779 l -15.949,-11.85 2.116,-3.135 z m 23.143,-0.14 c -4.334,0 -7.47,3.688 -7.47,7.375 0,3.781 3.458,7.377 7.236,7.377 4.013,0 7.332,-3.41 7.332,-7.377 0.003,-3.873 -3.227,-7.375 -7.098,-7.375 z"
         inkscape:connector-curvature="0"
         style="fill:#c60000" />
      <path
         id="path3370"
         d="m 530.68,56.256 c 0,9.955 8.162,18.054 18.195,18.054 9.953,0 18.049,-8.099 18.049,-18.054 0,-10.242 -7.96,-18.268 -18.121,-18.268 -10.162,0 -18.123,8.026 -18.123,18.268 z m 18.196,-14 c 7.854,0 14.003,6.248 14.003,14.223 0,7.479 -6.281,13.563 -14.003,13.563 -7.801,0 -14.147,-6.084 -14.147,-13.563 0,-8.11 6.082,-14.223 14.147,-14.223 z"
         inkscape:connector-curvature="0"
         style="fill:#c60000" />
      <path
         id="path3372"
         d="m 530.68,18.299 c 0,9.953 8.162,18.051 18.195,18.051 9.953,0 18.049,-8.098 18.049,-18.051 0,-10.244 -7.96,-18.27 -18.121,-18.27 -10.162,0 -18.123,8.026 -18.123,18.27 z M 548.876,4.297 c 7.854,0 14.003,6.246 14.003,14.223 0,7.479 -6.281,13.563 -14.003,13.563 -7.801,0 -14.147,-6.084 -14.147,-13.563 0,-8.108 6.082,-14.223 14.147,-14.223 z"
         inkscape:connector-curvature="0"
         style="fill:#c60000" />
    </g>
  </g>
</svg>
